<?xml version="1.0" encoding="UTF-8" standalone="no"?>
<!-- Created with Inkscape (http://www.inkscape.org/) -->

<svg
   xmlns:dc="http://purl.org/dc/elements/1.1/"
   xmlns:cc="http://creativecommons.org/ns#"
   xmlns:rdf="http://www.w3.org/1999/02/22-rdf-syntax-ns#"
   xmlns:svg="http://www.w3.org/2000/svg"
   xmlns="http://www.w3.org/2000/svg"
   xmlns:sodipodi="http://sodipodi.sourceforge.net/DTD/sodipodi-0.dtd"
   xmlns:inkscape="http://www.inkscape.org/namespaces/inkscape"
   version="1.1"
   id="svg512"
   width="567"
   height="558"
   viewBox="0 0 567 558"
   sodipodi:docname="item6.svg"
   inkscape:version="0.92.3 (unknown)">
  <metadata
     id="metadata518">
    <rdf:RDF>
      <cc:Work
         rdf:about="">
        <dc:format>image/svg+xml</dc:format>
        <dc:type
           rdf:resource="http://purl.org/dc/dcmitype/StillImage" />
        <dc:title></dc:title>
      </cc:Work>
    </rdf:RDF>
  </metadata>
  <defs
     id="defs516" />
  <sodipodi:namedview
     pagecolor="#ffffff"
     bordercolor="#666666"
     borderopacity="1"
     objecttolerance="10"
     gridtolerance="10"
     guidetolerance="10"
     inkscape:pageopacity="0"
     inkscape:pageshadow="2"
     inkscape:window-width="1299"
     inkscape:window-height="713"
     id="namedview514"
     showgrid="false"
     inkscape:zoom="0.5930573"
     inkscape:cx="283.5"
     inkscape:cy="339.28689"
     inkscape:window-x="67"
     inkscape:window-y="27"
     inkscape:window-maximized="1"
     inkscape:current-layer="svg512" />
  <path
     style="fill:#6fb534;stroke-width:0.24298634"
     d="m 273.40074,275.48898 c -8.22018,-0.87766 -15.36035,-2.97441 -23.25178,-6.828 -8.85748,-4.32535 -17.09747,-10.83747 -23.16451,-18.30707 -8.10697,-9.98112 -13.20464,-22.31666 -14.40637,-34.86107 -1.94798,-20.33415 4.9457,-39.35269 19.49447,-53.78209 11.49092,-11.39664 26.73764,-18.53982 42.66628,-19.98941 14.25989,-1.29773 27.31165,1.15444 39.67228,7.45365 14.5883,7.43448 26.16041,20.04477 32.1455,35.02941 3.19946,8.01037 4.654,15.86098 4.58675,24.75605 -0.0673,8.89507 -1.64041,16.73231 -4.96078,24.71389 -8.70684,20.92968 -28.07967,36.57218 -50.73026,40.9619 -6.40759,1.24181 -15.21691,1.58246 -22.05158,0.85274 z m 11.70801,-13.99213 c 8.4e-4,-0.11099 -0.45148,-0.67612 -1.00514,-1.25584 -0.55367,-0.57972 -1.34017,-1.76691 -1.74777,-2.63819 -0.68027,-1.4541 -0.74727,-1.83645 -0.81625,-4.65779 l -0.0752,-3.07366 4.1765,0.0185 c 4.60226,0.0203 4.21896,-0.11692 4.56291,1.6338 0.0914,0.46538 0.53763,1.11806 1.12642,1.64767 l 0.97502,0.87702 4.10403,-0.0578 c 4.03149,-0.0568 4.12253,-0.0697 5.15044,-0.73199 1.90587,-1.22793 1.98323,-1.60343 2.05262,-9.96412 0.0384,-4.63007 -0.0289,-7.33206 -0.18508,-7.42818 -0.13502,-0.0831 -0.56732,0.0718 -0.96066,0.34427 -0.39335,0.27244 -1.30568,0.76232 -2.02741,1.08863 -1.24918,0.56478 -1.52999,0.59227 -5.84369,0.57207 -3.18169,-0.015 -4.99807,-0.13171 -6.09803,-0.39217 -4.60628,-1.09071 -7.82373,-4.57314 -9.30929,-10.07596 -0.53975,-1.99937 -0.54201,-2.09781 -0.41966,-18.28017 l 0.12301,-16.26997 0.58705,-1.80524 c 1.33505,-4.1054 3.87845,-7.16971 7.23572,-8.71765 2.2439,-1.03459 3.5375,-1.29916 7.24403,-1.48154 3.8436,-0.18913 6.29828,0.17157 8.61642,1.2661 0.98721,0.46612 1.89371,0.84793 2.01444,0.84846 0.12074,5.3e-4 0.22271,-0.42129 0.22662,-0.93739 0.005,-0.6333 0.13341,-0.98536 0.39565,-1.08295 0.75993,-0.2828 7.82797,-0.1274 8.1355,0.17887 0.22436,0.22343 0.22741,8.25449 0.0132,34.77076 -0.15322,18.96411 -0.37265,35.07638 -0.48762,35.80503 -0.11498,0.72866 -0.12307,1.4175 -0.018,1.53077 0.47891,0.51617 7.13456,-4.41085 10.81019,-8.00251 8.19586,-8.00863 13.39665,-17.90446 15.35032,-29.20794 0.69637,-4.02903 0.68577,-11.29251 -0.0225,-15.42696 -1.29582,-7.56397 -3.94615,-14.30075 -8.07456,-20.52446 -1.66765,-2.51405 -5.43728,-7.16185 -5.95126,-7.33767 -0.15218,-0.0521 -0.3437,11.08041 -0.53491,31.0924 l -0.29786,31.1735 -5.02134,-0.0222 -5.02134,-0.0222 0.2053,-35.36075 0.2053,-35.36074 -0.79076,-0.5983 c -2.5457,-1.92609 -10.02533,-5.1818 -15.11609,-6.57968 -6.06494,-1.66539 -8.59621,-1.98762 -15.86572,-2.01972 -7.24602,-0.032 -9.81212,0.26926 -15.80298,1.8553 -5.02534,1.33041 -13.03452,4.65989 -13.34196,5.54634 -0.0805,0.232 1.35515,0.30447 6.47907,0.3271 7.29186,0.0322 8.43679,0.19478 10.78141,1.53088 2.72079,1.55046 5.3873,4.83818 6.43042,7.92849 l 0.53553,1.58654 -0.21547,37.10339 c -0.17259,29.71892 -0.27746,37.14165 -0.52693,37.29565 -0.17131,0.10575 -2.3192,0.18506 -4.77309,0.17625 -4.16249,-0.0149 -4.4784,-0.0473 -4.71167,-0.48336 -0.16581,-0.30992 -0.20518,-6.39974 -0.11688,-18.07887 l 0.13315,-17.61152 -9.64906,-0.0426 c -8.57273,-0.0379 -9.66597,-1.6e-4 -9.80063,0.338 -0.0834,0.20933 -0.21127,8.27819 -0.28425,17.93078 -0.14853,19.64497 0.0527,17.84362 -1.99202,17.83459 -0.59521,-0.003 -1.08283,0.0777 -1.08359,0.17848 -7.7e-4,0.10079 0.73842,0.74301 1.64263,1.42716 5.84106,4.41951 13.00944,7.91074 20.12393,9.80098 2.53956,0.67473 7.17885,1.58544 9.2437,1.81458 1.7615,0.19547 9.30664,0.20173 9.30811,0.008 z m -46.93083,-53.59772 c 0.19624,-20.80502 0.22631,-33.18283 0.0806,-33.18347 -0.69716,-0.003 -4.9863,6.03846 -7.03101,9.90365 -9.34796,17.67075 -7.65162,38.20653 4.50307,54.51401 0.87143,1.16916 1.70815,2.08582 1.85937,2.03701 0.20073,-0.0648 0.35945,-9.04702 0.58794,-33.2712 z m 61.16867,20.83567 c 0.55744,-0.1496 1.34668,-0.71058 2.12414,-1.50979 2.34879,-2.41452 2.15222,-0.81607 2.28663,-18.59435 l 0.11846,-15.66738 -0.58131,-0.8131 c -0.35463,-0.49603 -1.16207,-1.087 -2.07063,-1.51549 -1.41904,-0.66924 -1.64981,-0.7031 -4.89012,-0.71759 -1.95702,-0.009 -3.82261,0.10702 -4.39439,0.27271 -1.5088,0.43719 -2.74401,1.72388 -3.29216,3.42935 -0.42904,1.33487 -0.47219,2.50265 -0.56988,15.42434 -0.1151,15.22278 -0.0847,15.65263 1.23365,17.46805 0.85673,1.17971 1.63079,1.7026 3.11291,2.1028 1.38225,0.37323 5.70081,0.44837 6.9227,0.12045 z m -31.57471,-39.26963 c 0.095,-12.56975 0.0763,-12.82304 -1.05992,-14.34812 -1.07592,-1.44411 -1.52356,-1.51739 -8.98697,-1.47119 -6.36943,0.0394 -6.735,0.0664 -7.3955,0.54569 -0.99987,0.72556 -1.49669,1.67935 -1.8033,3.46199 -0.29475,1.71364 -0.5467,23.19012 -0.27523,23.46047 0.0891,0.0888 4.49759,0.18056 9.79653,0.20396 l 9.63445,0.0426 z"
     id="path57"
     inkscape:connector-curvature="0" />
</svg>
